<?xml version="1.0" encoding="UTF-8"?>
<svg xmlns="http://www.w3.org/2000/svg" xmlns:xlink="http://www.w3.org/1999/xlink" viewBox="0 0 50 50" width="50px" height="50px">
<g id="surface10935519">
<path style=" stroke:none;fill-rule:nonzero;fill:rgb(96.078432%,97.254902%,98.039216%);fill-opacity:1;" d="M 44.78125 13.15625 C 44 10.367188 42.453125 8.164062 40.1875 6.605469 C 37.328125 4.632812 34.039062 3.9375 31.199219 3.511719 C 27.269531 2.925781 23.710938 2.84375 20.316406 3.257812 C 17.136719 3.648438 14.742188 4.269531 12.558594 5.273438 C 8.277344 7.242188 5.707031 10.425781 4.921875 14.734375 C 4.539062 16.828125 4.28125 18.71875 4.132812 20.523438 C 3.789062 24.695312 4.101562 28.386719 5.085938 31.808594 C 6.046875 35.144531 7.722656 37.527344 10.210938 39.09375 C 10.84375 39.492188 11.65625 39.78125 12.441406 40.058594 C 12.886719 40.214844 13.320312 40.367188 13.675781 40.535156 C 14.003906 40.6875 14.003906 40.714844 14 40.988281 C 13.972656 43.359375 14 48.007812 14 48.007812 L 14.007812 49 L 15.789062 49 L 16.078125 48.71875 C 16.269531 48.539062 20.683594 44.273438 22.257812 42.554688 L 22.472656 42.316406 C 22.742188 42.003906 22.742188 42.003906 23.019531 42 C 25.144531 41.957031 27.316406 41.875 29.472656 41.757812 C 32.085938 41.617188 35.113281 41.363281 37.964844 40.175781 C 40.574219 39.085938 42.480469 37.355469 43.625 35.035156 C 44.820312 32.613281 45.527344 29.992188 45.792969 27.019531 C 46.261719 21.792969 45.929688 17.257812 44.78125 13.15625 Z M 35.382812 33.480469 C 34.726562 34.546875 33.75 35.289062 32.597656 35.769531 C 31.753906 36.121094 30.894531 36.046875 30.0625 35.695312 C 23.097656 32.746094 17.632812 28.101562 14.023438 21.421875 C 13.277344 20.046875 12.761719 18.546875 12.167969 17.09375 C 12.046875 16.796875 12.054688 16.445312 12 16.117188 C 12.050781 13.769531 13.851562 12.445312 15.671875 12.046875 C 16.367188 11.890625 16.984375 12.136719 17.5 12.632812 C 18.929688 13.992188 20.058594 15.574219 20.910156 17.347656 C 21.28125 18.125 21.113281 18.8125 20.480469 19.390625 C 20.347656 19.511719 20.210938 19.621094 20.066406 19.730469 C 18.621094 20.816406 18.410156 21.640625 19.179688 23.277344 C 20.492188 26.0625 22.671875 27.933594 25.488281 29.09375 C 26.230469 29.398438 26.929688 29.246094 27.496094 28.644531 C 27.574219 28.566406 27.660156 28.488281 27.714844 28.394531 C 28.824219 26.542969 30.4375 26.726562 31.925781 27.78125 C 32.902344 28.476562 33.851562 29.210938 34.816406 29.917969 C 36.289062 31 36.277344 32.015625 35.382812 33.480469 Z M 26.144531 15 C 25.816406 15 25.488281 15.027344 25.164062 15.082031 C 24.617188 15.171875 24.105469 14.804688 24.011719 14.257812 C 23.921875 13.714844 24.289062 13.199219 24.835938 13.109375 C 25.265625 13.035156 25.707031 13 26.144531 13 C 30.476562 13 34 16.523438 34 20.855469 C 34 21.296875 33.964844 21.738281 33.890625 22.164062 C 33.808594 22.652344 33.386719 23 32.90625 23 C 32.851562 23 32.796875 22.996094 32.738281 22.984375 C 32.195312 22.894531 31.828125 22.378906 31.917969 21.835938 C 31.972656 21.515625 32 21.1875 32 20.855469 C 32 17.628906 29.371094 15 26.144531 15 Z M 31 21 C 31 21.550781 30.550781 22 30 22 C 29.449219 22 29 21.550781 29 21 C 29 19.347656 27.652344 18 26 18 C 25.449219 18 25 17.550781 25 17 C 25 16.449219 25.449219 16 26 16 C 28.757812 16 31 18.242188 31 21 Z M 36.710938 23.222656 C 36.605469 23.6875 36.191406 24 35.734375 24 C 35.660156 24 35.585938 23.992188 35.511719 23.976562 C 34.972656 23.851562 34.636719 23.316406 34.757812 22.777344 C 34.902344 22.140625 34.976562 21.480469 34.976562 20.816406 C 34.976562 15.957031 31.019531 12 26.160156 12 C 25.496094 12 24.835938 12.074219 24.199219 12.21875 C 23.660156 12.34375 23.125 12.003906 23.003906 11.464844 C 22.878906 10.925781 23.21875 10.390625 23.757812 10.269531 C 24.539062 10.089844 25.347656 10 26.160156 10 C 32.125 10 36.976562 14.851562 36.976562 20.816406 C 36.976562 21.628906 36.886719 22.4375 36.710938 23.222656 Z M 36.710938 23.222656 "/>
</g>
</svg>
